<?xml version="1.0" standalone="no"?>
<!DOCTYPE svg PUBLIC "-//W3C//DTD SVG 20010904//EN"
 "http://www.w3.org/TR/2001/REC-SVG-20010904/DTD/svg10.dtd">
<svg version="1.0" xmlns="http://www.w3.org/2000/svg"
 width="108.000000pt" height="58.000000pt" viewBox="0 0 108.000000 58.000000"
 preserveAspectRatio="xMidYMid meet">

<g transform="translate(0.000000,58.000000) scale(0.100000,-0.100000)"
fill="#000000" stroke="none">
<path d="M407 363 c-14 -15 -47 -55 -73 -88 l-46 -60 6 53 c4 33 3 52 -4 52
-5 0 -10 -9 -10 -19 0 -26 -40 -56 -101 -76 -68 -23 -99 -14 -99 26 0 41 65
109 104 109 32 0 34 -23 4 -44 -27 -19 -18 -32 11 -17 26 15 39 60 20 72 -19
13 -68 3 -99 -20 -14 -10 -36 -37 -49 -60 l-24 -43 20 -26 c27 -37 70 -39 139
-8 68 31 64 31 64 6 0 -47 41 -15 119 93 23 31 46 57 52 57 6 0 8 -21 3 -59
-6 -56 -5 -60 20 -76 28 -18 98 -18 323 1 100 9 163 -1 163 -27 0 -23 15 -25
24 -4 8 21 -33 45 -90 51 -27 4 -115 -1 -194 -10 -123 -14 -152 -15 -185 -4
l-40 13 0 65 c0 76 -17 88 -58 43z"/>
<path d="M995 219 c-10 -15 1 -23 20 -15 9 3 13 10 10 16 -8 13 -22 13 -30 -1z"/>
</g>
</svg>
